<?xml version="1.0" encoding="utf-8"?>
<!-- Generator: Adobe Illustrator 27.5.0, SVG Export Plug-In . SVG Version: 6.00 Build 0)  -->
<svg version="1.1" id="Layer_1" xmlns="http://www.w3.org/2000/svg" xmlns:xlink="http://www.w3.org/1999/xlink" x="0px" y="0px"
	 viewBox="0 0 1440 1440" style="enable-background:new 0 0 1440 1440;" xml:space="preserve">
<path style="opacity:0.84;fill-rule:evenodd;clip-rule:evenodd;fill:#E6E7E8;" d="M720,883.771c87.827,0,159.024,2.508,159.024,5.6
	c0,3.093-71.197,5.6-159.024,5.6s-159.024-2.507-159.024-5.6C560.976,886.279,632.173,883.771,720,883.771"/>
<path style="fill:#939598;" d="M1059.85,946.682c-2.02-3.473-5.794-5.209-11.321-5.209c-5.528,0-9.302,1.736-11.321,5.209
	s-3.029,10.063-3.029,19.772s1.01,16.3,3.029,19.773c2.02,3.473,5.793,5.209,11.321,5.209c5.527,0,9.302-1.736,11.321-5.209
	c2.02-3.473,3.029-10.064,3.029-19.773S1061.869,950.154,1059.85,946.682 M1024.025,936.529c4.571-5.422,12.738-8.133,24.503-8.133
	c11.764,0,19.95,2.711,24.556,8.133c4.607,5.422,6.91,15.397,6.91,29.925c0,14.528-2.303,24.503-6.91,29.925
	c-4.605,5.421-12.792,8.132-24.556,8.132c-11.765,0-19.932-2.711-24.503-8.132c-4.571-5.422-6.857-15.396-6.857-29.925
	C1017.169,951.926,1019.454,941.951,1024.025,936.529z M1006.538,960.82v42.309h-11.905l-1.489-7.335
	c-5.669,5.812-12.721,8.717-21.154,8.717c-8.221,0-14.174-3.012-17.858-9.036c-3.686-6.023-5.528-15.768-5.528-29.233
	c0-14.315,2.428-24.202,7.282-29.659c4.854-5.457,13.377-8.185,25.565-8.185c8.859,0,16.371,0.851,22.537,2.552l-1.276,11.906
	c-8.008-0.354-14.918-0.531-20.729-0.531c-3.261,0-5.829,0.266-7.707,0.797c-1.879,0.531-3.526,1.684-4.943,3.455
	c-1.417,1.772-2.374,4.234-2.87,7.388c-0.496,3.154-0.744,7.424-0.744,12.81c0,9.142,0.851,15.414,2.551,18.816
	c1.701,3.401,4.854,5.102,9.462,5.102c4.252,0,8.646-1.24,13.182-3.721v-26.15H1006.538z M918.572,946.682
	c-2.02-3.473-5.794-5.209-11.321-5.209c-5.528,0-9.302,1.736-11.321,5.209c-2.021,3.473-3.029,10.063-3.029,19.772
	s1.009,16.3,3.029,19.773c2.019,3.473,5.793,5.209,11.321,5.209c5.527,0,9.302-1.736,11.321-5.209
	c2.02-3.473,3.029-10.064,3.029-19.773S920.592,950.154,918.572,946.682z M882.748,936.529c4.571-5.422,12.738-8.133,24.503-8.133
	c11.764,0,19.95,2.711,24.556,8.133c4.607,5.422,6.91,15.397,6.91,29.925c0,14.528-2.304,24.503-6.91,29.925
	c-4.605,5.421-12.792,8.132-24.556,8.132c-11.765,0-19.932-2.711-24.503-8.132c-4.571-5.422-6.856-15.396-6.856-29.925
	C875.892,951.926,878.177,941.951,882.748,936.529z M837.728,929.779v54.746c0,1.914,0.442,3.296,1.328,4.147
	c0.887,0.851,2.357,1.275,4.412,1.275h25.193l0.744,12.331c-7.157,0.78-17.504,1.17-31.04,1.17c-5.67,0-9.887-1.418-12.65-4.253
	c-2.764-2.834-4.146-6.626-4.146-11.374v-58.042H837.728z M763.954,975.384l-14.776-5.209c-5.457-1.984-9.355-4.678-11.693-8.079
	c-2.339-3.402-3.508-7.867-3.508-13.394c0-8.079,1.967-13.483,5.899-16.211c3.933-2.729,10.86-4.094,20.782-4.094
	c9.354,0,17.398,0.957,24.131,2.871l-1.063,11.056c-6.165-0.213-13.818-0.319-22.961-0.319c-4.252,0-7.087,0.372-8.504,1.116
	c-1.418,0.744-2.126,2.604-2.126,5.581c0,2.409,0.531,4.146,1.594,5.209c1.064,1.063,3.083,2.091,6.06,3.083l13.926,4.783
	c5.67,1.984,9.674,4.695,12.012,8.133c2.339,3.436,3.509,7.919,3.509,13.447c0,8.221-1.984,13.802-5.953,16.743
	c-3.969,2.94-11.056,4.411-21.261,4.411c-8.292,0-16.689-0.921-25.194-2.764l0.957-11.693c15.096,0.354,23.174,0.531,24.237,0.531
	c4.323,0,7.211-0.461,8.664-1.382c1.452-0.922,2.179-2.835,2.179-5.74c0-2.48-0.496-4.234-1.488-5.263
	C768.383,977.173,766.576,976.233,763.954,975.384z M701.341,990.479l0.744,11.906c-6.661,0.709-18.001,1.063-34.017,1.063
	c-4.89,0-8.788-1.329-11.693-3.986c-2.906-2.658-4.394-6.255-4.465-10.79v-44.436c0.071-4.536,1.559-8.133,4.465-10.79
	c2.906-2.657,6.803-3.986,11.693-3.986c16.017,0,27.356,0.354,34.017,1.063l-0.744,12.012h-28.17c-1.772,0-3.047,0.426-3.827,1.276
	c-0.78,0.85-1.17,2.232-1.17,4.145v11.162h29.233v11.693h-29.233v14.139c0,1.984,0.39,3.401,1.17,4.252
	c0.779,0.851,2.055,1.275,3.827,1.275H701.341z M611.94,929.779v54.746c0,1.914,0.443,3.296,1.329,4.147
	c0.886,0.851,2.356,1.275,4.412,1.275h25.194l0.744,12.331c-7.158,0.78-17.505,1.17-31.041,1.17c-5.669,0-9.886-1.418-12.65-4.253
	c-2.764-2.834-4.146-6.626-4.146-11.374v-58.042H611.94z M546.882,964.328h11.375c4.181-0.071,7.034-0.887,8.558-2.445
	c1.523-1.559,2.285-4.606,2.285-9.143c0-4.535-0.762-7.583-2.285-9.142c-1.524-1.56-4.377-2.339-8.558-2.339l-11.375,0.106V964.328z
	 M530.724,1003.129v-73.35c6.591-0.639,15.875-0.957,27.852-0.957c10.276,0,17.31,1.665,21.102,4.996
	c3.792,3.331,5.688,9.639,5.688,18.922c0,9.284-1.79,15.609-5.369,18.976c-3.579,3.366-10.01,5.05-19.294,5.05
	c-4.677,0-9.284-0.284-13.819-0.851v27.214H530.724z M515.841,1003.129h-16.158v-73.35h16.158V1003.129z M447.275,961.989h11.693
	c4.252,0,7.158-0.727,8.717-2.18c1.56-1.452,2.339-4.198,2.339-8.238c0-4.039-0.762-6.768-2.286-8.186
	c-1.523-1.417-4.447-2.126-8.77-2.126l-11.693,0.106V961.989z M489.159,1003.129h-17.115l-5.528-22.431
	c-0.708-2.338-1.647-3.95-2.817-4.836c-1.169-0.886-2.853-1.329-5.049-1.329l-11.375-0.106v28.702H431.33v-73.35
	c6.59-0.639,15.91-0.957,27.958-0.957c9.851,0,16.831,1.56,20.942,4.678c4.11,3.118,6.165,8.787,6.165,17.008
	c0,5.387-1.081,9.604-3.242,12.65c-2.162,3.048-5.758,4.891-10.79,5.528v0.531c5.599,1.275,9.071,4.961,10.418,11.056
	L489.159,1003.129z M421.975,942.961h-21.898v60.168h-16.265v-60.168h-21.898v-13.182h60.061V942.961z"/>
<path style="fill:#939598;" d="M893.255,1080v-41.683h25.443v4.992H899.09v12.391h17.442v4.872H899.09v14.435h21.112V1080H893.255z
	 M866.971,1043.009c-2.486,0-4.391,0.06-5.714,0.181v15.698h4.15c2.005,0,3.81-0.101,5.413-0.301c1.604-0.2,2.957-0.581,4.06-1.143
	c1.104-0.562,1.955-1.354,2.557-2.376c0.602-1.022,0.902-2.376,0.902-4.06c0-1.564-0.301-2.867-0.902-3.91
	c-0.601-1.042-1.413-1.864-2.435-2.466c-1.023-0.602-2.226-1.022-3.609-1.264C870.008,1043.129,868.534,1043.009,866.971,1043.009z
	 M875.813,1062.557c0.642,0.802,1.453,1.854,2.437,3.158c0.982,1.303,1.995,2.746,3.037,4.33s2.075,3.238,3.098,4.962
	c1.022,1.725,1.894,3.389,2.616,4.993h-6.376c-0.802-1.523-1.674-3.068-2.616-4.632c-0.942-1.563-1.894-3.058-2.857-4.481
	c-0.962-1.423-1.914-2.756-2.857-3.999c-0.942-1.243-1.794-2.326-2.557-3.248c-0.521,0.04-1.052,0.06-1.594,0.06
	c-0.541,0-1.093,0-1.654,0h-5.232V1080h-5.834v-41.081c1.644-0.401,3.479-0.672,5.503-0.813c2.025-0.141,3.88-0.21,5.563-0.21
	c5.854,0,10.315,1.103,13.384,3.308c3.067,2.205,4.601,5.493,4.601,9.864c0,2.767-0.731,5.133-2.195,7.098
	C880.814,1060.131,878.66,1061.595,875.813,1062.557z M821.078,1080v-41.683h25.442v4.992h-19.608v12.391h17.443v4.872h-17.443
	v14.435h21.112V1080H821.078z M804.898,1038.317h5.834V1080h-5.834v-19.247h-20.39V1080h-5.835v-41.683h5.835v17.383h20.39V1038.317
	z M730.435,1080v-41.683h25.442v4.992h-19.608v12.391h17.443v4.872h-17.443v14.435h21.112V1080H730.435z M715.218,1080
	c-0.882-1.484-1.895-3.148-3.038-4.993c-1.143-1.844-2.376-3.759-3.699-5.743c-1.323-1.985-2.696-4-4.12-6.045
	c-1.423-2.045-2.837-4.021-4.24-5.925c-1.403-1.905-2.767-3.699-4.09-5.384c-1.323-1.684-2.546-3.168-3.669-4.45V1080h-5.714
	v-41.683h4.632c1.884,2.005,3.899,4.341,6.044,7.007c2.146,2.667,4.271,5.413,6.376,8.24c2.105,2.827,4.09,5.604,5.955,8.331
	c1.864,2.727,3.438,5.152,4.721,7.277v-30.855h5.714V1080H715.218z M670.468,1038.317h5.834V1080h-5.834V1038.317z
	 M664.333,1074.947V1080h-25.081v-41.683h5.834v36.63H664.333z M624.275,1059.489h5.834v19.488c-0.482,0.16-1.173,0.341-2.075,0.541
	c-0.902,0.2-1.945,0.401-3.128,0.602c-1.183,0.2-2.476,0.371-3.879,0.511c-1.403,0.141-2.827,0.211-4.271,0.211
	c-2.927,0-5.593-0.481-8-1.443c-2.406-0.963-4.471-2.366-6.195-4.211c-1.725-1.844-3.058-4.109-4-6.796
	c-0.942-2.687-1.414-5.774-1.414-9.264c0-3.488,0.531-6.586,1.594-9.293c1.063-2.706,2.497-4.981,4.301-6.826
	c1.804-1.845,3.919-3.248,6.346-4.21c2.426-0.963,5.022-1.444,7.789-1.444c1.884,0,3.559,0.12,5.022,0.361
	c1.464,0.24,2.717,0.521,3.759,0.842s1.894,0.642,2.557,0.963c0.662,0.32,1.112,0.561,1.353,0.722l-1.865,4.871
	c-1.163-0.761-2.707-1.393-4.631-1.895c-1.925-0.501-3.889-0.752-5.895-0.752c-2.125,0-4.06,0.382-5.804,1.144
	c-1.745,0.762-3.228,1.864-4.451,3.308c-1.223,1.444-2.175,3.198-2.857,5.264c-0.682,2.064-1.022,4.381-1.022,6.946
	c0,2.486,0.29,4.752,0.872,6.797c0.582,2.045,1.463,3.8,2.647,5.263c1.183,1.464,2.646,2.597,4.391,3.398
	c1.745,0.803,3.8,1.203,6.165,1.203c1.684,0,3.118-0.09,4.301-0.271c1.183-0.181,2.035-0.351,2.556-0.512V1059.489z
	 M581.33,1064.541c-1.283-3.488-2.556-6.866-3.819-10.134c-1.263-3.269-2.576-6.406-3.94-9.414c-1.403,3.008-2.737,6.146-4,9.414
	c-1.263,3.268-2.516,6.646-3.759,10.134H581.33z M586.803,1080c-0.682-1.805-1.323-3.579-1.925-5.323
	c-0.602-1.744-1.223-3.519-1.865-5.323h-18.886L560.338,1080h-6.075c1.604-4.411,3.107-8.491,4.511-12.24
	c1.403-3.749,2.777-7.308,4.12-10.677c1.343-3.368,2.677-6.586,4-9.653c1.323-3.067,2.707-6.105,4.15-9.112h5.353
	c1.444,3.007,2.827,6.045,4.15,9.112c1.323,3.067,2.656,6.285,4,9.653c1.343,3.369,2.716,6.928,4.12,10.677
	c1.403,3.749,2.907,7.829,4.511,12.24H586.803z M552.82,1038.317v5.052h-13.112V1080h-5.834v-36.631h-13.112v-5.052H552.82z"/>
<g id="Layer_2">
	<path style="fill-rule:evenodd;clip-rule:evenodd;fill:#7670B3;" d="M506.424,682.385l41.601,24.018l41.601,24.018l41.6-24.018
		l41.601-24.018v-48.036v-48.036c-39.455-22.78-78.911-45.559-118.366-68.338v-68.338l59.183-34.169l59.183,34.169v54.472
		l0.239,0.138l23.779,13.729l0-34.169V435.77l-41.6-24.017l-41.601-24.018l-41.6,24.018l-41.601,24.017v48.036v48.036
		c39.455,22.779,78.911,45.559,118.366,68.338v68.338l-59.183,34.169l-59.183-34.169l0-54.472l-24.018-13.867v34.169
		L506.424,682.385z"/>
	<polygon style="fill-rule:evenodd;clip-rule:evenodd;fill:#C7C4E2;" points="554.46,654.652 554.46,627.914 601.635,655.149 
		601.634,600.678 624.79,614.046 624.79,654.652 589.625,674.954 	"/>
	<polygon style="fill-rule:evenodd;clip-rule:evenodd;fill:#C7C4E2;" points="578.479,504.108 601.634,517.478 601.634,463.006 
		648.808,490.242 648.808,463.503 613.643,443.201 578.479,463.503 	"/>
	<polygon style="fill-rule:evenodd;clip-rule:evenodd;fill:#E8639D;" points="637.661,538.278 672.826,517.975 648.808,504.108 
		613.643,524.411 	"/>
	<polygon style="fill-rule:evenodd;clip-rule:evenodd;fill:#F6ADCD;" points="613.643,524.411 613.643,483.806 648.808,504.108 	"/>
	<polygon style="fill-rule:evenodd;clip-rule:evenodd;fill:#EC008C;" points="661.679,552.144 637.661,538.278 672.826,517.975 
		696.844,531.842 	"/>
	<polygon style="fill-rule:evenodd;clip-rule:evenodd;fill:#E8639D;" points="565.607,579.877 530.443,600.18 554.46,614.046 
		589.625,593.744 	"/>
	<polygon style="fill-rule:evenodd;clip-rule:evenodd;fill:#F6ADCD;" points="589.625,593.744 589.625,634.349 554.46,614.046 	"/>
	<polygon style="fill-rule:evenodd;clip-rule:evenodd;fill:#EC008C;" points="541.59,566.011 565.607,579.877 530.443,600.18 
		506.425,586.314 	"/>
	<polygon style="fill-rule:evenodd;clip-rule:evenodd;fill:#E8639D;" points="506.425,586.314 541.59,566.011 517.572,552.144 
		482.407,572.446 	"/>
	<polygon style="fill-rule:evenodd;clip-rule:evenodd;fill:#F6ADCD;" points="482.407,572.446 482.407,531.842 517.572,552.144 	"/>
	<polygon style="fill-rule:evenodd;clip-rule:evenodd;fill:#E8639D;" points="696.844,531.842 661.679,552.145 685.697,566.011 
		720.862,545.708 	"/>
	<polygon style="fill-rule:evenodd;clip-rule:evenodd;fill:#F6ADCD;" points="720.862,545.708 720.862,586.314 685.697,566.011 	"/>
	<path style="fill-rule:evenodd;clip-rule:evenodd;fill:#7670B3;" d="M756.027,360l-41.601,24.018l-41.601,24.018v48.036v48.036
		l41.601,24.018l41.601,24.018c39.455-22.779,78.91-45.56,118.365-68.339l59.183,34.169v68.338l-59.183,34.169l-47.174-27.236
		l-0.239,0.138l-23.778,13.729l29.591,17.085l41.601,24.018l41.601-24.018l41.6-24.018v-48.036v-48.036l-41.6-24.018l-41.601-24.018
		c-39.455,22.779-78.91,45.559-118.365,68.339l-59.183-34.169v-68.338l59.183-34.169l47.174,27.236l24.018-13.867l-29.592-17.084
		L756.027,360z"/>
	<polygon style="fill-rule:evenodd;clip-rule:evenodd;fill:#C7C4E2;" points="756.027,415.468 779.183,428.836 732.009,456.072 
		779.183,483.308 756.027,496.678 720.862,476.375 720.862,435.77 	"/>
	<polygon style="fill-rule:evenodd;clip-rule:evenodd;fill:#C7C4E2;" points="874.393,511.539 851.236,524.908 898.41,552.144 
		851.236,579.38 874.393,592.749 909.558,572.446 909.558,531.842 	"/>
	<polygon style="fill-rule:evenodd;clip-rule:evenodd;fill:#E8639D;" points="815.209,545.708 815.209,586.314 839.227,572.447 
		839.227,531.842 	"/>
	<polygon style="fill-rule:evenodd;clip-rule:evenodd;fill:#F6ADCD;" points="839.227,531.842 874.393,552.144 839.227,572.447 	"/>
	<polygon style="fill-rule:evenodd;clip-rule:evenodd;fill:#EC008C;" points="791.191,559.575 815.209,545.708 815.209,586.314 
		791.191,600.18 	"/>
	<polygon style="fill-rule:evenodd;clip-rule:evenodd;fill:#E8639D;" points="815.21,462.508 815.21,421.903 791.191,435.77 
		791.191,476.375 	"/>
	<polygon style="fill-rule:evenodd;clip-rule:evenodd;fill:#F6ADCD;" points="791.191,476.375 756.027,456.072 791.191,435.77 	"/>
	<polygon style="fill-rule:evenodd;clip-rule:evenodd;fill:#EC008C;" points="839.227,448.642 815.21,462.508 815.21,421.903 
		839.227,408.037 	"/>
	<polygon style="fill-rule:evenodd;clip-rule:evenodd;fill:#E8639D;" points="839.227,408.037 839.227,448.642 863.246,434.774 
		863.246,394.17 	"/>
	<polygon style="fill-rule:evenodd;clip-rule:evenodd;fill:#F6ADCD;" points="863.246,394.17 898.41,414.472 863.246,434.774 	"/>
	<polygon style="fill-rule:evenodd;clip-rule:evenodd;fill:#E8639D;" points="791.191,600.18 791.191,559.575 767.174,573.442 
		767.174,614.047 	"/>
	<polygon style="fill-rule:evenodd;clip-rule:evenodd;fill:#F6ADCD;" points="767.174,614.047 732.009,593.745 767.174,573.442 	"/>
	<path style="fill-rule:evenodd;clip-rule:evenodd;fill:#7670B3;" d="M910.181,737.493v-48.036l-0.001-48.036l-41.6-24.018
		l-41.601-24.018l-41.601,24.018l-41.601,24.018c0,45.559,0.001,91.118,0.001,136.677l-59.183,34.169l-59.183-34.169v-68.338
		l47.174-27.236v-0.276V654.79l-29.591,17.085l-41.6,24.018v48.036v48.036l41.6,24.018L684.596,840l41.6-24.018l41.601-24.018
		c0-45.56,0-91.118,0-136.677l59.183-34.169l59.183,34.169v68.338l-47.174,27.235v27.734l29.592-17.085L910.181,737.493z"/>
	<polygon style="fill-rule:evenodd;clip-rule:evenodd;fill:#C7C4E2;" points="862.144,709.759 838.988,723.128 838.988,668.657 
		791.814,695.893 791.814,669.154 826.979,648.852 862.144,669.154 	"/>
	<polygon style="fill-rule:evenodd;clip-rule:evenodd;fill:#C7C4E2;" points="719.761,764.231 719.761,737.493 672.587,764.729 
		672.587,710.257 649.431,723.626 649.431,764.231 684.596,784.533 	"/>
	<polygon style="fill-rule:evenodd;clip-rule:evenodd;fill:#E8639D;" points="719.761,695.893 684.596,675.59 684.596,703.323 
		719.761,723.626 	"/>
	<polygon style="fill-rule:evenodd;clip-rule:evenodd;fill:#F6ADCD;" points="719.761,723.626 684.596,743.929 684.596,703.323 	"/>
	<polygon style="fill-rule:evenodd;clip-rule:evenodd;fill:#EC008C;" points="719.761,668.159 719.761,695.893 684.596,675.59 
		684.596,647.856 	"/>
	<polygon style="fill-rule:evenodd;clip-rule:evenodd;fill:#E8639D;" points="791.814,737.493 826.979,757.795 826.979,730.062 
		791.814,709.759 	"/>
	<polygon style="fill-rule:evenodd;clip-rule:evenodd;fill:#F6ADCD;" points="791.814,709.759 826.979,689.457 826.979,730.062 	"/>
	<polygon style="fill-rule:evenodd;clip-rule:evenodd;fill:#EC008C;" points="791.814,765.227 791.814,737.493 826.979,757.795 
		826.979,785.529 	"/>
	<polygon style="fill-rule:evenodd;clip-rule:evenodd;fill:#E8639D;" points="826.979,785.528 791.814,765.227 791.814,792.96 
		826.979,813.262 	"/>
	<polygon style="fill-rule:evenodd;clip-rule:evenodd;fill:#F6ADCD;" points="826.979,813.262 791.814,833.565 791.814,792.96 	"/>
	<polygon style="fill-rule:evenodd;clip-rule:evenodd;fill:#E8639D;" points="684.596,647.856 719.761,668.159 719.761,640.425 
		684.596,620.123 	"/>
	<polygon style="fill-rule:evenodd;clip-rule:evenodd;fill:#F6ADCD;" points="684.596,620.123 719.761,599.82 719.761,640.425 	"/>
</g>
</svg>
